<svg width="58" height="58" viewBox="0 0 58 58" fill="none" xmlns="http://www.w3.org/2000/svg">
<rect width="58" height="58" rx="29" fill="#FFE4E4"/>
<path d="M28.9993 18.4792C29.3143 18.4792 29.6163 18.6044 29.839 18.8271C30.0617 19.0498 30.1868 19.3518 30.1868 19.6667V27.5834C30.1868 27.8984 30.0617 28.2004 29.839 28.4231C29.6163 28.6458 29.3143 28.7709 28.9993 28.7709C28.6844 28.7709 28.3824 28.6458 28.1597 28.4231C27.937 28.2004 27.8118 27.8984 27.8118 27.5834V19.6667C27.8118 19.3518 27.937 19.0498 28.1597 18.8271C28.3824 18.6044 28.6844 18.4792 28.9993 18.4792ZM28.9993 33.9167C29.4193 33.9167 29.822 33.7499 30.1189 33.453C30.4159 33.1561 30.5827 32.7533 30.5827 32.3334C30.5827 31.9135 30.4159 31.5108 30.1189 31.2138C29.822 30.9169 29.4193 30.7501 28.9993 30.7501C28.5794 30.7501 28.1767 30.9169 27.8798 31.2138C27.5828 31.5108 27.416 31.9135 27.416 32.3334C27.416 32.7533 27.5828 33.1561 27.8798 33.453C28.1767 33.7499 28.5794 33.9167 28.9993 33.9167Z" fill="#FE0202"/>
<path fill-rule="evenodd" clip-rule="evenodd" d="M23.1318 14.087C24.8291 11.9321 26.6278 10.5625 28.9996 10.5625C31.3714 10.5625 33.1701 11.9321 34.8674 14.087C36.5363 16.2087 38.3033 19.3437 40.5674 23.3574L41.2578 24.5797C43.1277 27.8968 44.6065 30.5173 45.3823 32.6183C46.174 34.7685 46.364 36.7192 45.1638 38.4403C44.0001 40.1107 42.0573 40.7931 39.6063 41.1161C37.1664 41.4375 33.8826 41.4375 29.6725 41.4375H28.3267C24.115 41.4375 20.8328 41.4375 18.3928 41.1161C15.9418 40.7931 13.9991 40.1107 12.8353 38.4403C11.6352 36.7192 11.8236 34.7669 12.6168 32.6183C13.3927 30.5157 14.8715 27.8968 16.7414 24.5797L17.4318 23.3574C19.6943 19.3437 21.4629 16.2071 23.1318 14.087ZM24.9985 15.5563C23.4563 17.5149 21.7748 20.49 19.4442 24.6225L18.8678 25.6437C16.9267 29.0859 15.5476 31.5401 14.8462 33.4417C14.1527 35.3195 14.2477 36.3138 14.7828 37.0833C15.3544 37.9003 16.4263 38.4608 18.7032 38.7617C20.9705 39.0593 24.096 39.0625 28.4248 39.0625H29.5759C33.9032 39.0625 37.0287 39.0593 39.2976 38.7617C41.5728 38.4608 42.6448 37.9003 43.2148 37.0833C43.7515 36.3138 43.8481 35.3195 43.1546 33.4417C42.4516 31.5401 41.0725 29.0859 39.1313 25.6437L38.555 24.6225C36.2243 20.49 34.5428 17.5149 33.0007 15.5563C31.4728 13.6183 30.2868 12.9375 28.9996 12.9375C27.7123 12.9375 26.5264 13.6167 24.9985 15.5563Z" fill="#FE0202"/>
</svg>
